<svg xmlns="http://www.w3.org/2000/svg" viewBox="0 0 294 113"><defs><style>.cls-1{fill:#00a6e2;}.cls-2{fill:#52bb72;}</style></defs><title>Plan de travail 20</title><g id="Calque_1" data-name="Calque 1"><path class="cls-1" d="M82.31,51.66a.83.83,0,0,1-.59-.25L80,49.66a.85.85,0,0,1,0-1.2l1.76-1.75a.86.86,0,0,1,1.19,0l1.76,1.75a.85.85,0,0,1,0,1.2l-1.76,1.75A.84.84,0,0,1,82.31,51.66Zm0-4.43,0,0L80.51,49a.08.08,0,0,0,0,.11l1.75,1.75a.08.08,0,0,0,.11,0l1.75-1.75a.08.08,0,0,0,0-.11l-1.75-1.76Z"/><path class="cls-2" d="M120.94,86.17a1.09,1.09,0,0,1-.78-.32l-3.35-3.35a1.1,1.1,0,0,1,0-1.56l3.35-3.35a1.1,1.1,0,0,1,1.56,0l3.35,3.35a1.1,1.1,0,0,1,0,1.56l-3.35,3.35A1.09,1.09,0,0,1,120.94,86.17Zm0-7.91a.09.09,0,0,0-.07,0l-3.36,3.36a.1.1,0,0,0,0,.14l3.36,3.36a.1.1,0,0,0,.14,0l3.36-3.36a.1.1,0,0,0,0-.14L121,78.29A.09.09,0,0,0,120.94,78.26Z"/><path class="cls-2" d="M130.88,105.88a1,1,0,0,1-.44-.11,1,1,0,0,1-.42-1.29,64.8,64.8,0,0,0-3.32-64.59,1,1,0,0,1,.28-1.32,1,1,0,0,1,1.33.28,66.72,66.72,0,0,1,3.42,66.51A1,1,0,0,1,130.88,105.88Z"/><path class="cls-1" d="M19,106.26a1.32,1.32,0,0,1-1.17-.68A62,62,0,0,1,10.4,83.24a1.35,1.35,0,0,1,2.67-.35,59.13,59.13,0,0,0,7.09,21.37,1.35,1.35,0,0,1-.51,1.83A1.33,1.33,0,0,1,19,106.26Z"/><path class="cls-1" d="M41.6,23.55a1.32,1.32,0,0,1-1.16-.67A1.34,1.34,0,0,1,40.92,21a62.61,62.61,0,0,1,57-3,1.34,1.34,0,1,1-1.1,2.45,60,60,0,0,0-54.54,2.91A1.26,1.26,0,0,1,41.6,23.55Z"/><rect class="cls-1" x="24.02" y="103.92" width="96.94" height="2.66" rx="1.2"/><path class="cls-1" d="M96.09,73.48a.87.87,0,0,1-.6-.25l-1.75-1.75a.86.86,0,0,1-.25-.6.84.84,0,0,1,.25-.6l1.75-1.75a.87.87,0,0,1,1.2,0l1.75,1.75a.84.84,0,0,1,.25.6.86.86,0,0,1-.25.6l-1.75,1.75A.87.87,0,0,1,96.09,73.48ZM96,72.69a.09.09,0,0,0,.12,0l1.75-1.76a.08.08,0,0,0,0-.11l-1.76-1.75a.08.08,0,0,0-.11,0l-1.75,1.75a.08.08,0,0,0,0,.11Z"/><path class="cls-1" d="M47.94,64.39a.89.89,0,0,1-.6-.25l-2.58-2.59a.84.84,0,0,1,0-1.19l2.58-2.59a.85.85,0,0,1,1.2,0l2.59,2.59a.84.84,0,0,1,0,1.19l-2.59,2.59A.86.86,0,0,1,47.94,64.39Zm0-6.1,0,0L45.3,60.9a.08.08,0,0,0,0,.11l2.59,2.59a.08.08,0,0,0,.11,0L50.58,61a.08.08,0,0,0,0-.11L48,58.31Z"/><rect class="cls-2" x="72.38" y="45.17" width="5.64" height="5.64" rx="0.57" transform="translate(-11.91 67.23) rotate(-45)"/><rect class="cls-2" x="84.18" y="65.05" width="7.82" height="7.82" rx="1.54" transform="translate(-22.96 82.48) rotate(-45)"/><path class="cls-2" d="M24,75.28a1.42,1.42,0,0,1-1-.42l-3-3a1.44,1.44,0,0,1,0-2l3-3a1.45,1.45,0,0,1,2,0l3,3a1.44,1.44,0,0,1,0,2l-3,3A1.43,1.43,0,0,1,24,75.28Zm0-7.51a.11.11,0,0,0-.09,0l-3,3A.12.12,0,0,0,21,71l3,3a.14.14,0,0,0,.19,0l3-3a.14.14,0,0,0,0-.19l-3-3A.13.13,0,0,0,24,67.77Z"/><path class="cls-1" d="M73.61,82.29A.84.84,0,0,1,73,82l-1.75-1.75a.85.85,0,0,1,0-1.2L73,77.34a.87.87,0,0,1,1.2,0L76,79.09a.84.84,0,0,1,.25.6.86.86,0,0,1-.25.6L74.21,82A.84.84,0,0,1,73.61,82.29Zm0-4.43a.07.07,0,0,0-.06,0L71.8,79.63a.08.08,0,0,0,0,.11l1.75,1.76a.09.09,0,0,0,.12,0l1.75-1.76a.08.08,0,0,0,0-.11l-1.75-1.75A.07.07,0,0,0,73.61,77.86Z"/><path class="cls-2" d="M71,32.09a1.67,1.67,0,0,1-1.19-.49l-3.51-3.51a1.68,1.68,0,0,1,0-2.39l3.5-3.51a1.74,1.74,0,0,1,2.4,0l3.5,3.51a1.68,1.68,0,0,1,0,2.39l-3.5,3.51A1.7,1.7,0,0,1,71,32.09Zm-.11-1.58a.16.16,0,0,0,.22,0L74.63,27a.17.17,0,0,0,0-.23l-3.51-3.5a.16.16,0,0,0-.22,0l-3.5,3.5a.15.15,0,0,0,0,.23Z"/><rect class="cls-2" x="64.54" y="75.12" width="5.64" height="5.64" rx="0.57" transform="translate(-35.38 70.46) rotate(-45)"/><rect class="cls-2" x="52.52" y="53.97" width="8.25" height="8.25" rx="1.55" transform="translate(-24.49 57.07) rotate(-45)"/><path class="cls-1" d="M133.13,69.37a1.34,1.34,0,0,1-1.33-1.19,60.21,60.21,0,0,0-28.47-44.31,1.34,1.34,0,0,1,1.39-2.29,62.49,62.49,0,0,1,29.75,46.29,1.35,1.35,0,0,1-1.19,1.49Z"/><path class="cls-1" d="M125.76,106.26a1.3,1.3,0,0,1-.66-.17,1.33,1.33,0,0,1-.51-1.83,59.86,59.86,0,0,0,7.6-29.2,1.35,1.35,0,0,1,2.69,0,62.55,62.55,0,0,1-7.95,30.52A1.34,1.34,0,0,1,125.76,106.26Z"/><path class="cls-1" d="M121.51,100.07,110.43,88.44a1.6,1.6,0,0,0-1.18-.51H35.5a1.63,1.63,0,0,0-1.19.51L23.24,100.07a1.63,1.63,0,0,0,1.18,2.75h95.91A1.63,1.63,0,0,0,121.51,100.07ZM38.27,90h68.44a.58.58,0,0,1,0,1.15H38.27a.58.58,0,0,1,0-1.15Zm46,10.94H60.66a.68.68,0,0,1-.5-1.15l3.14-3.3a.68.68,0,0,1,.49-.22h17.4a.66.66,0,0,1,.49.22l3.14,3.3A.68.68,0,0,1,84.32,100.93Zm25.56-6.77H35.1a.58.58,0,1,1,0-1.15h74.78a.58.58,0,1,1,0,1.15Z"/><path class="cls-1" d="M11.26,74h0a1.34,1.34,0,0,1-1.29-1.4A62.34,62.34,0,0,1,28.41,30.64a1.34,1.34,0,1,1,1.89,1.91A59.44,59.44,0,0,0,12.61,72.66,1.35,1.35,0,0,1,11.26,74Z"/><path class="cls-2" d="M13.87,105.88a1,1,0,0,1-.86-.52,66.93,66.93,0,0,1-3.31-53,1,1,0,0,1,1.81.66,64.83,64.83,0,0,0,3.21,51.43,1,1,0,0,1-.41,1.29A1,1,0,0,1,13.87,105.88Z"/><path class="cls-2" d="M13.78,46.33a1,1,0,0,1-.85-1.39A66.73,66.73,0,0,1,69.44,8.5a1,1,0,1,1,.08,1.92A64.8,64.8,0,0,0,14.64,45.81,1,1,0,0,1,13.78,46.33Z"/><path class="cls-1" d="M107.65,38.37H37.09a2.35,2.35,0,0,0-2.29,2.4V84.85a2,2,0,0,0,1.9,2h71.35a2,2,0,0,0,1.9-2V40.77A2.36,2.36,0,0,0,107.65,38.37Zm-.2,44.45a1.71,1.71,0,0,1-1.68,1.75H39a1.71,1.71,0,0,1-1.68-1.75v-40a2.12,2.12,0,0,1,2.08-2.17h66a2.12,2.12,0,0,1,2.07,2.17Z"/><path class="cls-2" d="M125.08,36.85a1,1,0,0,1-.77-.39,64.51,64.51,0,0,0-48.45-26A1,1,0,0,1,76,8.53a66.43,66.43,0,0,1,49.89,26.79,1,1,0,0,1-.2,1.34A.93.93,0,0,1,125.08,36.85Z"/><path class="cls-1" d="M72.45,53.69c0,.63,0,1.24,0,1.85,0,.07-.11.17-.19.2a1.26,1.26,0,0,0-1,1.35v2.24a1.28,1.28,0,0,0,.94,1.29.37.37,0,0,1,.21.26c0,.31,0,.63,0,1a22.45,22.45,0,0,0-5.77.75,1,1,0,0,1-.05-.17c0-1.11,0-2.22,0-3.34a6,6,0,0,1,5.63-5.47Z"/><path class="cls-1" d="M78.51,66a20.6,20.6,0,0,1-.37,3,6,6,0,0,1-11.68-1.58c0-1.08,0-2.16,0-3.23,0-.27.1-.36.33-.42A21.64,21.64,0,0,1,74,63.16c1.35.11,2.7.4,4.05.6.31.05.38.21.37.5,0,.59,0,1.18,0,1.76Z"/><path class="cls-1" d="M72.76,61.89c0-.38,0-.72,0-1,0-.08.12-.19.21-.23a1.26,1.26,0,0,0,.94-1.33V57.34c0-1.05-.17-1.29-1.16-1.68V53.59a15.55,15.55,0,0,1,1.81.4,5.92,5.92,0,0,1,4,5.51c0,1,0,2,0,3.14A23,23,0,0,0,72.76,61.89Z"/><path class="cls-1" d="M142.78,61.8h14.4v3.1H146v4.7h8.54v3.1H146v7.77h-3.2Z"/><path class="cls-1" d="M158.89,61.8h12.93a2.6,2.6,0,0,1,1.89.77,2.54,2.54,0,0,1,.78,1.89V71.4a2.66,2.66,0,0,1-2.67,2.66h-.16l4.27,6.41H172l-4.25-6.41h-5.69v6.41h-3.19ZM162.08,71h8.4a.76.76,0,0,0,.56-.22.67.67,0,0,0,.23-.53V65.64a.68.68,0,0,0-.23-.53.79.79,0,0,0-.56-.21h-8.4Z"/><path class="cls-1" d="M177.66,61.8h14.4v3.1H180.85v4.7h8.54v3.1h-8.54v4.68h11.21v3.09h-14.4Z"/><path class="cls-1" d="M194.12,61.8h14.4v3.1H197.31v4.7h8.55v3.1h-8.55v4.68h11.21v3.09h-14.4Z"/><path class="cls-1" d="M142.71,86.86h10.57a3.89,3.89,0,0,1,3.83,3.83v10.18a3.69,3.69,0,0,1-1.14,2.7,3.64,3.64,0,0,1-2.69,1.13H142.71Zm2.43,2.34v13.16h7.22a2.24,2.24,0,0,0,1.63-.67,2.19,2.19,0,0,0,.69-1.62V91.49a2.18,2.18,0,0,0-.69-1.61,2.25,2.25,0,0,0-1.63-.68Z"/><path class="cls-1" d="M160.39,86.86h13.26V89.2H162.82v5.41h8.28V97h-8.28v5.41h10.83v2.34H160.39Z"/><path class="cls-1" d="M174.22,86.86h2.54l6.08,15.78,6-15.78h2.55l-6.7,17.84H181Z"/><path class="cls-1" d="M193.3,86.86h13.25V89.2H195.73v5.41H204V97h-8.28v5.41h10.82v2.34H193.3Z"/><path class="cls-1" d="M208.53,86.86H211v15.5h10.82v2.34H208.53Z"/><path class="cls-1" d="M226.05,86.86h9.31a2.58,2.58,0,0,1,2.54,2.55v12.75a2.56,2.56,0,0,1-2.54,2.54h-9.31a2.58,2.58,0,0,1-2.55-2.54V89.41a2.6,2.6,0,0,1,2.55-2.55Zm1,2.34a1,1,0,0,0-.77.31,1,1,0,0,0-.31.74v11.06a1,1,0,0,0,.31.74,1,1,0,0,0,.77.31h7.39a1,1,0,0,0,.76-.31,1,1,0,0,0,.31-.74V90.25a1,1,0,0,0-.31-.74,1,1,0,0,0-.76-.31Z"/><path class="cls-1" d="M241.18,86.86H253a2.51,2.51,0,0,1,2.55,2.55v7.66A2.51,2.51,0,0,1,253,99.61h-9.43v5.09h-2.43Zm2.43,10.41h8.47a1,1,0,0,0,.76-.31,1,1,0,0,0,.31-.74v-6a1,1,0,0,0-.32-.78,1,1,0,0,0-.75-.33h-8.47Z"/><path class="cls-1" d="M258.87,86.86h13.25V89.2H261.3v5.41h8.28V97H261.3v5.41h10.82v2.34H258.87Z"/><path class="cls-1" d="M274.09,86.86H286a2.51,2.51,0,0,1,2.55,2.55V96a2.48,2.48,0,0,1-.75,1.82,2.45,2.45,0,0,1-1.8.74h-.12l4,6.17h-2.93l-4-6.17h-6.38v6.17h-2.43Zm2.43,9.31H285a1,1,0,0,0,.76-.3,1,1,0,0,0,.31-.73V90.25a1,1,0,0,0-.31-.74,1,1,0,0,0-.76-.31h-8.47Z"/></g></svg>